<mxfile host="app.diagrams.net" modified="2021-10-31T00:42:02.201Z" agent="5.0 (Macintosh; Intel Mac OS X 10_15_7) AppleWebKit/537.36 (KHTML, like Gecko) Chrome/94.0.4606.81 Safari/537.36" etag="LnQbp0FT0hXIw2UAn8rk" version="15.5.5" type="github">
  <diagram id="fYgDOWnkKd0Z5Vb0ao0X" name="Page-1">
    <mxGraphModel dx="2082" dy="811" grid="1" gridSize="10" guides="1" tooltips="1" connect="1" arrows="1" fold="1" page="1" pageScale="1" pageWidth="827" pageHeight="1169" math="0" shadow="0">
      <root>
        <mxCell id="0" />
        <mxCell id="1" parent="0" />
        <mxCell id="V11sSQZRBxnOTxt7Vm7f-1" value="Backend Node" style="rounded=1;whiteSpace=wrap;html=1;" parent="1" vertex="1">
          <mxGeometry x="160" y="370" width="120" height="60" as="geometry" />
        </mxCell>
        <mxCell id="V11sSQZRBxnOTxt7Vm7f-2" value="Worker Node" style="rounded=1;whiteSpace=wrap;html=1;" parent="1" vertex="1">
          <mxGeometry x="500" y="370" width="120" height="60" as="geometry" />
        </mxCell>
        <mxCell id="V11sSQZRBxnOTxt7Vm7f-3" value="mysql" style="shape=cylinder3;whiteSpace=wrap;html=1;boundedLbl=1;backgroundOutline=1;size=15;" parent="1" vertex="1">
          <mxGeometry x="340" y="580" width="94" height="90" as="geometry" />
        </mxCell>
        <mxCell id="V11sSQZRBxnOTxt7Vm7f-4" value="" style="endArrow=classic;html=1;exitX=1;exitY=0.5;exitDx=0;exitDy=0;entryX=0;entryY=0.5;entryDx=0;entryDy=0;fillColor=#f8cecc;strokeColor=#FF0000;" parent="1" source="V11sSQZRBxnOTxt7Vm7f-1" target="V11sSQZRBxnOTxt7Vm7f-2" edge="1">
          <mxGeometry width="50" height="50" relative="1" as="geometry">
            <mxPoint x="60" y="490" as="sourcePoint" />
            <mxPoint x="400" y="420" as="targetPoint" />
          </mxGeometry>
        </mxCell>
        <mxCell id="V11sSQZRBxnOTxt7Vm7f-9" value="&lt;font style=&quot;font-size: 16px&quot;&gt;task&lt;/font&gt;" style="edgeLabel;html=1;align=center;verticalAlign=middle;resizable=0;points=[];" parent="V11sSQZRBxnOTxt7Vm7f-4" vertex="1" connectable="0">
          <mxGeometry relative="1" as="geometry">
            <mxPoint as="offset" />
          </mxGeometry>
        </mxCell>
        <mxCell id="V11sSQZRBxnOTxt7Vm7f-7" value="" style="endArrow=classic;html=1;exitX=0.5;exitY=1;exitDx=0;exitDy=0;entryX=1;entryY=0;entryDx=0;entryDy=15;entryPerimeter=0;fillColor=#f8cecc;strokeColor=#FF0000;" parent="1" source="V11sSQZRBxnOTxt7Vm7f-2" target="V11sSQZRBxnOTxt7Vm7f-3" edge="1">
          <mxGeometry width="50" height="50" relative="1" as="geometry">
            <mxPoint x="290" y="410" as="sourcePoint" />
            <mxPoint x="424" y="410" as="targetPoint" />
          </mxGeometry>
        </mxCell>
        <mxCell id="V11sSQZRBxnOTxt7Vm7f-8" value="&lt;font style=&quot;font-size: 16px&quot;&gt;callback&lt;/font&gt;" style="edgeLabel;html=1;align=center;verticalAlign=middle;resizable=0;points=[];" parent="V11sSQZRBxnOTxt7Vm7f-7" vertex="1" connectable="0">
          <mxGeometry x="-0.0002" y="2" relative="1" as="geometry">
            <mxPoint as="offset" />
          </mxGeometry>
        </mxCell>
        <mxCell id="V11sSQZRBxnOTxt7Vm7f-10" value="&lt;div style=&quot;text-align: justify&quot;&gt;&lt;span&gt;1. 上传人群&lt;/span&gt;&lt;br&gt;&lt;span&gt;2. 计算人群&lt;/span&gt;&lt;br&gt;&lt;/div&gt;" style="text;html=1;strokeColor=none;fillColor=none;align=center;verticalAlign=middle;whiteSpace=wrap;rounded=0;" parent="1" vertex="1">
          <mxGeometry x="340" y="410" width="100" height="40" as="geometry" />
        </mxCell>
        <mxCell id="V11sSQZRBxnOTxt7Vm7f-15" value="READ&amp;amp;WRITE" style="endArrow=classic;startArrow=classic;html=1;entryX=0.5;entryY=1;entryDx=0;entryDy=0;exitX=0;exitY=0;exitDx=0;exitDy=15;exitPerimeter=0;fillColor=#0050ef;strokeColor=#001DBC;" parent="1" source="V11sSQZRBxnOTxt7Vm7f-3" target="V11sSQZRBxnOTxt7Vm7f-1" edge="1">
          <mxGeometry width="50" height="50" relative="1" as="geometry">
            <mxPoint x="250" y="530" as="sourcePoint" />
            <mxPoint x="300" y="480" as="targetPoint" />
          </mxGeometry>
        </mxCell>
        <mxCell id="V11sSQZRBxnOTxt7Vm7f-16" value="人群创建" style="rounded=0;whiteSpace=wrap;html=1;fillColor=#f5f5f5;strokeColor=#666666;fontColor=#333333;" parent="1" vertex="1">
          <mxGeometry x="120" y="210" width="90" height="40" as="geometry" />
        </mxCell>
        <mxCell id="V11sSQZRBxnOTxt7Vm7f-18" value="人群列表" style="rounded=0;whiteSpace=wrap;html=1;fillColor=#f5f5f5;strokeColor=#666666;fontColor=#333333;" parent="1" vertex="1">
          <mxGeometry x="220" y="210" width="90" height="40" as="geometry" />
        </mxCell>
        <mxCell id="V11sSQZRBxnOTxt7Vm7f-19" value="人群下载" style="rounded=0;whiteSpace=wrap;html=1;fillColor=#f5f5f5;strokeColor=#666666;fontColor=#333333;" parent="1" vertex="1">
          <mxGeometry x="120" y="260" width="90" height="40" as="geometry" />
        </mxCell>
        <mxCell id="V11sSQZRBxnOTxt7Vm7f-20" value="人群分析" style="rounded=0;whiteSpace=wrap;html=1;fillColor=#f5f5f5;strokeColor=#666666;fontColor=#333333;" parent="1" vertex="1">
          <mxGeometry x="220" y="260" width="90" height="40" as="geometry" />
        </mxCell>
        <mxCell id="V11sSQZRBxnOTxt7Vm7f-21" value="状态机" style="rounded=0;whiteSpace=wrap;html=1;fillColor=#f5f5f5;strokeColor=#666666;fontColor=#333333;" parent="1" vertex="1">
          <mxGeometry x="120" y="310" width="90" height="40" as="geometry" />
        </mxCell>
        <mxCell id="V11sSQZRBxnOTxt7Vm7f-22" value="人群分组" style="rounded=0;whiteSpace=wrap;html=1;fillColor=#f5f5f5;strokeColor=#666666;fontColor=#333333;" parent="1" vertex="1">
          <mxGeometry x="220" y="310" width="90" height="40" as="geometry" />
        </mxCell>
        <mxCell id="V11sSQZRBxnOTxt7Vm7f-23" value="tx_async_task" style="swimlane;fontStyle=0;childLayout=stackLayout;horizontal=1;startSize=26;horizontalStack=0;resizeParent=1;resizeParentMax=0;resizeLast=0;collapsible=1;marginBottom=0;" parent="1" vertex="1">
          <mxGeometry x="490" y="230" width="140" height="130" as="geometry">
            <mxRectangle x="490" y="240" width="110" height="26" as="alternateBounds" />
          </mxGeometry>
        </mxCell>
        <mxCell id="V11sSQZRBxnOTxt7Vm7f-44" value="task_uuid" style="text;strokeColor=none;fillColor=none;align=left;verticalAlign=top;spacingLeft=4;spacingRight=4;overflow=hidden;rotatable=0;points=[[0,0.5],[1,0.5]];portConstraint=eastwest;" parent="V11sSQZRBxnOTxt7Vm7f-23" vertex="1">
          <mxGeometry y="26" width="140" height="26" as="geometry" />
        </mxCell>
        <mxCell id="V11sSQZRBxnOTxt7Vm7f-24" value="task_config" style="text;strokeColor=none;fillColor=none;align=left;verticalAlign=top;spacingLeft=4;spacingRight=4;overflow=hidden;rotatable=0;points=[[0,0.5],[1,0.5]];portConstraint=eastwest;" parent="V11sSQZRBxnOTxt7Vm7f-23" vertex="1">
          <mxGeometry y="52" width="140" height="26" as="geometry" />
        </mxCell>
        <mxCell id="V11sSQZRBxnOTxt7Vm7f-25" value="task_callback" style="text;strokeColor=none;fillColor=none;align=left;verticalAlign=top;spacingLeft=4;spacingRight=4;overflow=hidden;rotatable=0;points=[[0,0.5],[1,0.5]];portConstraint=eastwest;" parent="V11sSQZRBxnOTxt7Vm7f-23" vertex="1">
          <mxGeometry y="78" width="140" height="26" as="geometry" />
        </mxCell>
        <mxCell id="V11sSQZRBxnOTxt7Vm7f-26" value="task_type" style="text;strokeColor=none;fillColor=none;align=left;verticalAlign=top;spacingLeft=4;spacingRight=4;overflow=hidden;rotatable=0;points=[[0,0.5],[1,0.5]];portConstraint=eastwest;" parent="V11sSQZRBxnOTxt7Vm7f-23" vertex="1">
          <mxGeometry y="104" width="140" height="26" as="geometry" />
        </mxCell>
        <mxCell id="V11sSQZRBxnOTxt7Vm7f-37" value="tx_crowd" style="swimlane;fontStyle=0;childLayout=stackLayout;horizontal=1;startSize=26;horizontalStack=0;resizeParent=1;resizeParentMax=0;resizeLast=0;collapsible=1;marginBottom=0;" parent="1" vertex="1">
          <mxGeometry x="320" y="690" width="140" height="182" as="geometry">
            <mxRectangle x="490" y="240" width="110" height="26" as="alternateBounds" />
          </mxGeometry>
        </mxCell>
        <mxCell id="V11sSQZRBxnOTxt7Vm7f-38" value="crowd_name" style="text;strokeColor=none;fillColor=none;align=left;verticalAlign=top;spacingLeft=4;spacingRight=4;overflow=hidden;rotatable=0;points=[[0,0.5],[1,0.5]];portConstraint=eastwest;" parent="V11sSQZRBxnOTxt7Vm7f-37" vertex="1">
          <mxGeometry y="26" width="140" height="26" as="geometry" />
        </mxCell>
        <mxCell id="V11sSQZRBxnOTxt7Vm7f-39" value="crowd_uuid" style="text;strokeColor=none;fillColor=none;align=left;verticalAlign=top;spacingLeft=4;spacingRight=4;overflow=hidden;rotatable=0;points=[[0,0.5],[1,0.5]];portConstraint=eastwest;" parent="V11sSQZRBxnOTxt7Vm7f-37" vertex="1">
          <mxGeometry y="52" width="140" height="26" as="geometry" />
        </mxCell>
        <mxCell id="V11sSQZRBxnOTxt7Vm7f-41" value="crowd_expr" style="text;strokeColor=none;fillColor=none;align=left;verticalAlign=top;spacingLeft=4;spacingRight=4;overflow=hidden;rotatable=0;points=[[0,0.5],[1,0.5]];portConstraint=eastwest;" parent="V11sSQZRBxnOTxt7Vm7f-37" vertex="1">
          <mxGeometry y="78" width="140" height="26" as="geometry" />
        </mxCell>
        <mxCell id="V11sSQZRBxnOTxt7Vm7f-45" value="crowd_status" style="text;strokeColor=none;fillColor=none;align=left;verticalAlign=top;spacingLeft=4;spacingRight=4;overflow=hidden;rotatable=0;points=[[0,0.5],[1,0.5]];portConstraint=eastwest;" parent="V11sSQZRBxnOTxt7Vm7f-37" vertex="1">
          <mxGeometry y="104" width="140" height="26" as="geometry" />
        </mxCell>
        <mxCell id="V11sSQZRBxnOTxt7Vm7f-42" value="crowd_size" style="text;strokeColor=none;fillColor=none;align=left;verticalAlign=top;spacingLeft=4;spacingRight=4;overflow=hidden;rotatable=0;points=[[0,0.5],[1,0.5]];portConstraint=eastwest;" parent="V11sSQZRBxnOTxt7Vm7f-37" vertex="1">
          <mxGeometry y="130" width="140" height="26" as="geometry" />
        </mxCell>
        <mxCell id="V11sSQZRBxnOTxt7Vm7f-43" value="...." style="text;strokeColor=none;fillColor=none;align=left;verticalAlign=top;spacingLeft=4;spacingRight=4;overflow=hidden;rotatable=0;points=[[0,0.5],[1,0.5]];portConstraint=eastwest;" parent="V11sSQZRBxnOTxt7Vm7f-37" vertex="1">
          <mxGeometry y="156" width="140" height="26" as="geometry" />
        </mxCell>
        <mxCell id="V11sSQZRBxnOTxt7Vm7f-46" value="rainbow" style="shape=cylinder3;whiteSpace=wrap;html=1;boundedLbl=1;backgroundOutline=1;size=15;" parent="1" vertex="1">
          <mxGeometry x="-10" y="580" width="94" height="90" as="geometry" />
        </mxCell>
        <mxCell id="V11sSQZRBxnOTxt7Vm7f-47" value="READ&amp;amp;WRITE" style="endArrow=classic;startArrow=classic;html=1;exitX=0.5;exitY=0;exitDx=0;exitDy=0;exitPerimeter=0;fillColor=#0050ef;strokeColor=#001DBC;" parent="1" source="V11sSQZRBxnOTxt7Vm7f-46" edge="1">
          <mxGeometry width="50" height="50" relative="1" as="geometry">
            <mxPoint x="20" y="560" as="sourcePoint" />
            <mxPoint x="220" y="430" as="targetPoint" />
          </mxGeometry>
        </mxCell>
        <mxCell id="V11sSQZRBxnOTxt7Vm7f-48" value="Service Node" style="rounded=1;whiteSpace=wrap;html=1;" parent="1" vertex="1">
          <mxGeometry x="-23" y="770" width="120" height="60" as="geometry" />
        </mxCell>
        <mxCell id="V11sSQZRBxnOTxt7Vm7f-50" value="" style="endArrow=classic;html=1;exitX=0;exitY=0.5;exitDx=0;exitDy=0;exitPerimeter=0;entryX=1;entryY=0.5;entryDx=0;entryDy=0;fillColor=#d5e8d4;strokeColor=#00FF00;" parent="1" source="V11sSQZRBxnOTxt7Vm7f-3" target="V11sSQZRBxnOTxt7Vm7f-48" edge="1">
          <mxGeometry width="50" height="50" relative="1" as="geometry">
            <mxPoint x="190" y="800" as="sourcePoint" />
            <mxPoint x="240" y="750" as="targetPoint" />
          </mxGeometry>
        </mxCell>
        <mxCell id="V11sSQZRBxnOTxt7Vm7f-52" value="READ" style="edgeLabel;html=1;align=center;verticalAlign=middle;resizable=0;points=[];" parent="V11sSQZRBxnOTxt7Vm7f-50" vertex="1" connectable="0">
          <mxGeometry x="-0.0714" relative="1" as="geometry">
            <mxPoint as="offset" />
          </mxGeometry>
        </mxCell>
        <mxCell id="V11sSQZRBxnOTxt7Vm7f-51" value="" style="endArrow=classic;html=1;exitX=0.5;exitY=1;exitDx=0;exitDy=0;exitPerimeter=0;entryX=0.5;entryY=0;entryDx=0;entryDy=0;fillColor=#d5e8d4;strokeColor=#00FF00;" parent="1" source="V11sSQZRBxnOTxt7Vm7f-46" target="V11sSQZRBxnOTxt7Vm7f-48" edge="1">
          <mxGeometry width="50" height="50" relative="1" as="geometry">
            <mxPoint x="350" y="635" as="sourcePoint" />
            <mxPoint x="107" y="810" as="targetPoint" />
          </mxGeometry>
        </mxCell>
        <mxCell id="V11sSQZRBxnOTxt7Vm7f-53" value="READ" style="edgeLabel;html=1;align=center;verticalAlign=middle;resizable=0;points=[];" parent="V11sSQZRBxnOTxt7Vm7f-51" vertex="1" connectable="0">
          <mxGeometry x="-0.16" y="1" relative="1" as="geometry">
            <mxPoint as="offset" />
          </mxGeometry>
        </mxCell>
        <mxCell id="V11sSQZRBxnOTxt7Vm7f-54" value="" style="endArrow=classic;html=1;fillColor=#dae8fc;strokeColor=#00FF00;" parent="1" edge="1">
          <mxGeometry width="50" height="50" relative="1" as="geometry">
            <mxPoint x="-40" y="295" as="sourcePoint" />
            <mxPoint x="30" y="295" as="targetPoint" />
          </mxGeometry>
        </mxCell>
        <mxCell id="V11sSQZRBxnOTxt7Vm7f-55" value="" style="endArrow=classic;html=1;fillColor=#f8cecc;strokeColor=#FF0000;" parent="1" edge="1">
          <mxGeometry width="50" height="50" relative="1" as="geometry">
            <mxPoint x="-40" y="327" as="sourcePoint" />
            <mxPoint x="30" y="327" as="targetPoint" />
          </mxGeometry>
        </mxCell>
        <mxCell id="V11sSQZRBxnOTxt7Vm7f-56" value="" style="endArrow=classic;html=1;fillColor=#e1d5e7;strokeColor=#001DBC;" parent="1" edge="1">
          <mxGeometry width="50" height="50" relative="1" as="geometry">
            <mxPoint x="-40" y="361" as="sourcePoint" />
            <mxPoint x="30" y="361" as="targetPoint" />
          </mxGeometry>
        </mxCell>
        <mxCell id="V11sSQZRBxnOTxt7Vm7f-57" value="read" style="text;html=1;align=center;verticalAlign=middle;resizable=0;points=[];autosize=1;strokeColor=none;fillColor=none;" parent="1" vertex="1">
          <mxGeometry x="-90" y="280" width="40" height="20" as="geometry" />
        </mxCell>
        <mxCell id="V11sSQZRBxnOTxt7Vm7f-60" value="write" style="text;html=1;align=center;verticalAlign=middle;resizable=0;points=[];autosize=1;strokeColor=none;fillColor=none;" parent="1" vertex="1">
          <mxGeometry x="-90" y="317" width="40" height="20" as="geometry" />
        </mxCell>
        <mxCell id="V11sSQZRBxnOTxt7Vm7f-61" value="read&amp;amp;write" style="text;html=1;align=center;verticalAlign=middle;resizable=0;points=[];autosize=1;strokeColor=none;fillColor=none;" parent="1" vertex="1">
          <mxGeometry x="-120" y="350" width="70" height="20" as="geometry" />
        </mxCell>
        <mxCell id="V11sSQZRBxnOTxt7Vm7f-62" value="feature-engine" style="rounded=0;whiteSpace=wrap;html=1;" parent="1" vertex="1">
          <mxGeometry x="-160" y="960" width="110" height="40" as="geometry" />
        </mxCell>
        <mxCell id="V11sSQZRBxnOTxt7Vm7f-63" value="" style="endArrow=classic;html=1;exitX=0.25;exitY=1;exitDx=0;exitDy=0;entryX=0.5;entryY=0;entryDx=0;entryDy=0;" parent="1" source="V11sSQZRBxnOTxt7Vm7f-48" target="V11sSQZRBxnOTxt7Vm7f-62" edge="1">
          <mxGeometry width="50" height="50" relative="1" as="geometry">
            <mxPoint x="-130" y="910" as="sourcePoint" />
            <mxPoint x="-80" y="860" as="targetPoint" />
          </mxGeometry>
        </mxCell>
        <mxCell id="V11sSQZRBxnOTxt7Vm7f-64" value="筛选人群 - 判存" style="edgeLabel;html=1;align=center;verticalAlign=middle;resizable=0;points=[];" parent="V11sSQZRBxnOTxt7Vm7f-63" vertex="1" connectable="0">
          <mxGeometry x="-0.0321" relative="1" as="geometry">
            <mxPoint as="offset" />
          </mxGeometry>
        </mxCell>
        <mxCell id="V11sSQZRBxnOTxt7Vm7f-65" value="redis-set" style="rounded=0;whiteSpace=wrap;html=1;" parent="1" vertex="1">
          <mxGeometry x="90" y="960" width="110" height="40" as="geometry" />
        </mxCell>
        <mxCell id="V11sSQZRBxnOTxt7Vm7f-66" value="" style="endArrow=classic;html=1;exitX=0.5;exitY=1;exitDx=0;exitDy=0;entryX=0.5;entryY=0;entryDx=0;entryDy=0;" parent="1" source="V11sSQZRBxnOTxt7Vm7f-48" target="V11sSQZRBxnOTxt7Vm7f-65" edge="1">
          <mxGeometry width="50" height="50" relative="1" as="geometry">
            <mxPoint x="210" y="840" as="sourcePoint" />
            <mxPoint x="123" y="870" as="targetPoint" />
          </mxGeometry>
        </mxCell>
        <mxCell id="V11sSQZRBxnOTxt7Vm7f-67" value="计算/上传/内容消费 - 判存" style="edgeLabel;html=1;align=center;verticalAlign=middle;resizable=0;points=[];" parent="V11sSQZRBxnOTxt7Vm7f-66" vertex="1" connectable="0">
          <mxGeometry x="-0.0321" relative="1" as="geometry">
            <mxPoint as="offset" />
          </mxGeometry>
        </mxCell>
        <mxCell id="Gj2b4ulX9OR1OoSCB_fc-1" value="tx_entity" style="swimlane;fontStyle=0;childLayout=stackLayout;horizontal=1;startSize=26;horizontalStack=0;resizeParent=1;resizeParentMax=0;resizeLast=0;collapsible=1;marginBottom=0;" vertex="1" parent="1">
          <mxGeometry x="490" y="690" width="140" height="130" as="geometry">
            <mxRectangle x="490" y="240" width="110" height="26" as="alternateBounds" />
          </mxGeometry>
        </mxCell>
        <mxCell id="Gj2b4ulX9OR1OoSCB_fc-2" value="id" style="text;strokeColor=none;fillColor=none;align=left;verticalAlign=top;spacingLeft=4;spacingRight=4;overflow=hidden;rotatable=0;points=[[0,0.5],[1,0.5]];portConstraint=eastwest;" vertex="1" parent="Gj2b4ulX9OR1OoSCB_fc-1">
          <mxGeometry y="26" width="140" height="26" as="geometry" />
        </mxCell>
        <mxCell id="Gj2b4ulX9OR1OoSCB_fc-3" value="entity_uuid" style="text;strokeColor=none;fillColor=none;align=left;verticalAlign=top;spacingLeft=4;spacingRight=4;overflow=hidden;rotatable=0;points=[[0,0.5],[1,0.5]];portConstraint=eastwest;" vertex="1" parent="Gj2b4ulX9OR1OoSCB_fc-1">
          <mxGeometry y="52" width="140" height="26" as="geometry" />
        </mxCell>
        <mxCell id="Gj2b4ulX9OR1OoSCB_fc-4" value="store_type" style="text;strokeColor=none;fillColor=none;align=left;verticalAlign=top;spacingLeft=4;spacingRight=4;overflow=hidden;rotatable=0;points=[[0,0.5],[1,0.5]];portConstraint=eastwest;" vertex="1" parent="Gj2b4ulX9OR1OoSCB_fc-1">
          <mxGeometry y="78" width="140" height="26" as="geometry" />
        </mxCell>
        <mxCell id="Gj2b4ulX9OR1OoSCB_fc-7" value="...." style="text;strokeColor=none;fillColor=none;align=left;verticalAlign=top;spacingLeft=4;spacingRight=4;overflow=hidden;rotatable=0;points=[[0,0.5],[1,0.5]];portConstraint=eastwest;" vertex="1" parent="Gj2b4ulX9OR1OoSCB_fc-1">
          <mxGeometry y="104" width="140" height="26" as="geometry" />
        </mxCell>
      </root>
    </mxGraphModel>
  </diagram>
</mxfile>
